<svg width="393" height="852" viewBox="0 0 393 852" fill="none" xmlns="http://www.w3.org/2000/svg">
<g clip-path="url(#clip0_2026_1437)">
<rect width="393" height="852" rx="25" fill="white"/>
<rect width="393" height="422" fill="url(#paint0_linear_2026_1437)"/>
<rect y="633" width="190" height="219" fill="#B7E8FF"/>
<rect y="422" width="190" height="211" fill="#3D3D3D"/>
<rect x="190" y="422" width="203" height="106" fill="url(#paint1_linear_2026_1437)"/>
<rect x="190" y="528" width="203" height="105" fill="#FFC1D9"/>
<rect x="190" y="633" width="203" height="104" fill="#FFC1D9"/>
<rect x="190" y="737" width="203" height="106" fill="url(#paint2_linear_2026_1437)"/>
<rect x="190" y="799" width="203" height="53" fill="#3D3D3D"/>
<path d="M190 584C159.072 584 134 558.928 134 528C134 497.072 159.072 472 190 472V584Z" fill="url(#paint3_linear_2026_1437)"/>
<path d="M134 584C103.072 584 78 558.928 78 528C78 497.072 103.072 472 134 472V584Z" fill="url(#paint4_linear_2026_1437)"/>
<path d="M78 584C47.0721 584 22 558.928 22 528C22 497.072 47.0721 472 78 472V584Z" fill="url(#paint5_linear_2026_1437)"/>
<rect x="177.628" y="190.849" width="81" height="163" transform="rotate(14.8897 177.628 190.849)" fill="url(#paint6_linear_2026_1437)"/>
<path d="M202.755 197.53L177.628 190.849L224.507 170.201L256.391 211.791L231.747 205.238L202.755 197.53Z" fill="url(#paint7_linear_2026_1437)"/>
<rect x="220.289" y="127.69" width="30" height="52" transform="rotate(14.8897 220.289 127.69)" fill="url(#paint8_linear_2026_1437)"/>
<rect x="167.349" y="229.505" width="55" height="65" transform="rotate(14.8897 167.349 229.505)" fill="url(#paint9_linear_2026_1437)"/>
<circle cx="218.41" cy="245.669" r="21.5" transform="rotate(14.8897 218.41 245.669)" fill="url(#paint10_linear_2026_1437)"/>
<rect x="278.022" y="192.58" width="56.4156" height="113.528" transform="rotate(-29.3814 278.022 192.58)" fill="url(#paint11_linear_2026_1437)"/>
<path d="M293.801 183.695L278.022 192.58L291.363 159.49L327.484 164.73L312.008 173.444L293.801 183.695Z" fill="url(#paint12_linear_2026_1437)"/>
<rect x="268.591" y="140.34" width="20.8947" height="36.2174" transform="rotate(-29.3814 268.591 140.34)" fill="url(#paint13_linear_2026_1437)"/>
<rect x="291.69" y="216.856" width="38.3069" height="45.2718" transform="rotate(-29.3814 291.69 216.856)" fill="url(#paint14_linear_2026_1437)"/>
<circle cx="325.014" cy="200.091" r="14.9745" transform="rotate(-29.3814 325.014 200.091)" fill="url(#paint15_linear_2026_1437)"/>
<rect width="393" height="852" fill="black" fill-opacity="0.21"/>
<line x1="41" y1="52" x2="351" y2="52" stroke="white" stroke-width="2"/>
<line x1="41" y1="285" x2="351" y2="285" stroke="white" stroke-width="2"/>
<line x1="41" y1="798" x2="351" y2="798" stroke="white" stroke-width="2"/>
</g>
<defs>
<linearGradient id="paint0_linear_2026_1437" x1="196.5" y1="0" x2="196.5" y2="422" gradientUnits="userSpaceOnUse">
<stop stop-color="#B7E8FF"/>
<stop offset="0.567708" stop-color="#B7E8FF"/>
<stop offset="1" stop-color="#FFC1D9"/>
</linearGradient>
<linearGradient id="paint1_linear_2026_1437" x1="291.5" y1="422" x2="291.5" y2="528" gradientUnits="userSpaceOnUse">
<stop stop-color="#B7E8FF"/>
<stop offset="1" stop-color="white"/>
</linearGradient>
<linearGradient id="paint2_linear_2026_1437" x1="291.5" y1="737" x2="291.5" y2="843" gradientUnits="userSpaceOnUse">
<stop stop-color="white"/>
<stop offset="1" stop-color="#B7E8FF"/>
</linearGradient>
<linearGradient id="paint3_linear_2026_1437" x1="190" y1="472" x2="190" y2="584" gradientUnits="userSpaceOnUse">
<stop stop-color="#FFC1D9"/>
<stop offset="0.447917" stop-color="#FFC1D9"/>
<stop offset="1" stop-color="#B7E8FF"/>
</linearGradient>
<linearGradient id="paint4_linear_2026_1437" x1="134" y1="472" x2="134" y2="584" gradientUnits="userSpaceOnUse">
<stop stop-color="#FFC1D9"/>
<stop offset="0.447917" stop-color="#FFC1D9"/>
<stop offset="1" stop-color="#B7E8FF"/>
</linearGradient>
<linearGradient id="paint5_linear_2026_1437" x1="78" y1="472" x2="78" y2="584" gradientUnits="userSpaceOnUse">
<stop stop-color="#FFC1D9"/>
<stop offset="0.447917" stop-color="#FFC1D9"/>
<stop offset="1" stop-color="#B7E8FF"/>
</linearGradient>
<linearGradient id="paint6_linear_2026_1437" x1="177.628" y1="234.349" x2="258.628" y2="234.349" gradientUnits="userSpaceOnUse">
<stop stop-color="#8DFFEA"/>
<stop offset="1" stop-color="#FFD4F0"/>
</linearGradient>
<linearGradient id="paint7_linear_2026_1437" x1="225.232" y1="170.394" x2="217.009" y2="201.32" gradientUnits="userSpaceOnUse">
<stop stop-color="#B7E8FF"/>
<stop offset="1" stop-color="#FFD4F0"/>
</linearGradient>
<linearGradient id="paint8_linear_2026_1437" x1="220.289" y1="150.69" x2="250.289" y2="150.69" gradientUnits="userSpaceOnUse">
<stop stop-color="#FFD4F0"/>
<stop offset="1" stop-color="#FFF4BB"/>
</linearGradient>
<linearGradient id="paint9_linear_2026_1437" x1="222.349" y1="260.005" x2="167.349" y2="259.005" gradientUnits="userSpaceOnUse">
<stop stop-color="#FFF4BB"/>
<stop offset="1" stop-color="#FFF4BB" stop-opacity="0"/>
</linearGradient>
<linearGradient id="paint10_linear_2026_1437" x1="196.91" y1="243.669" x2="239.91" y2="243.669" gradientUnits="userSpaceOnUse">
<stop stop-color="#FFD4F0"/>
<stop offset="1" stop-color="#FFD4F0" stop-opacity="0"/>
</linearGradient>
<linearGradient id="paint11_linear_2026_1437" x1="278.022" y1="222.877" x2="334.437" y2="222.877" gradientUnits="userSpaceOnUse">
<stop stop-color="#8DFFEA"/>
<stop offset="1" stop-color="#FFD4F0"/>
</linearGradient>
<linearGradient id="paint12_linear_2026_1437" x1="291.818" y1="159.234" x2="302.753" y2="178.655" gradientUnits="userSpaceOnUse">
<stop stop-color="#B7E8FF"/>
<stop offset="1" stop-color="#FFD4F0"/>
</linearGradient>
<linearGradient id="paint13_linear_2026_1437" x1="268.591" y1="156.359" x2="289.486" y2="156.359" gradientUnits="userSpaceOnUse">
<stop stop-color="#FFD4F0"/>
<stop offset="1" stop-color="#FFF4BB"/>
</linearGradient>
<linearGradient id="paint14_linear_2026_1437" x1="329.997" y1="238.099" x2="291.69" y2="237.402" gradientUnits="userSpaceOnUse">
<stop stop-color="#FFF4BB"/>
<stop offset="1" stop-color="#FFF4BB" stop-opacity="0"/>
</linearGradient>
<linearGradient id="paint15_linear_2026_1437" x1="310.039" y1="198.698" x2="339.988" y2="198.698" gradientUnits="userSpaceOnUse">
<stop stop-color="#FFD4F0"/>
<stop offset="1" stop-color="#FFD4F0" stop-opacity="0"/>
</linearGradient>
<clipPath id="clip0_2026_1437">
<rect width="393" height="852" rx="25" fill="white"/>
</clipPath>
</defs>
</svg>
