<svg width="393" height="852" viewBox="0 0 393 852" fill="none" xmlns="http://www.w3.org/2000/svg">
<g clip-path="url(#clip0_2026_1525)">
<rect width="393" height="852" rx="25" fill="white"/>
<rect width="393" height="852" fill="#3D3D3D"/>
<path d="M64.9761 100.046L68.495 109.815L76.1237 102.771L74.6996 113.056L84.728 110.364L78.6873 118.81L88.818 121.086L79.5444 125.757L87.4566 132.481L77.0747 132.307L80.9558 141.938L71.8439 136.959L70.8048 147.291L65.0503 138.648L59.3291 147.313L58.2503 136.985L49.1576 141.999L53.0017 132.354L42.6205 132.567L50.5068 125.813L41.2154 121.178L51.3372 118.862L45.2641 110.44L55.3027 113.094L53.8391 102.814L61.4948 109.829L64.9761 100.046Z" fill="url(#paint0_linear_2026_1525)"/>
<path d="M122.976 62.0461L126.122 77.4548L138.398 67.6258L130.904 81.4516L146.626 81.8134L131.998 87.5871L143.809 97.9704L128.892 92.9904L131.266 108.537L123.04 95.1332L114.865 108.568L117.179 93.0129L102.281 98.0502L114.053 87.6216L99.4023 81.9042L115.123 81.4819L107.575 67.6851L119.89 77.4667L122.976 62.0461Z" fill="url(#paint1_linear_2026_1525)"/>
<path d="M74.755 66.4334L80.6246 70.8054L87.9434 70.755L83.5714 76.6246L83.6218 83.9434L77.7522 79.5714L70.4334 79.6218L74.8054 73.7522L74.755 66.4334Z" fill="url(#paint2_linear_2026_1525)"/>
<rect y="748" width="190" height="104" fill="url(#paint3_linear_2026_1525)"/>
<path d="M190 654C190 543.543 279.543 454 390 454H393V748H190V654Z" fill="url(#paint4_linear_2026_1525)"/>
<rect y="644" width="190" height="104" fill="url(#paint5_linear_2026_1525)"/>
<rect width="393" height="422" fill="url(#paint6_linear_2026_1525)"/>
<rect y="633" width="190" height="219" fill="#B7E8FF"/>
<rect y="422" width="190" height="211" fill="#3D3D3D"/>
<rect x="190" y="422" width="203" height="106" fill="url(#paint7_linear_2026_1525)"/>
<rect x="190" y="528" width="203" height="105" fill="#FFC1D9"/>
<rect x="190" y="633" width="203" height="104" fill="#FFC1D9"/>
<rect x="190" y="737" width="203" height="106" fill="url(#paint8_linear_2026_1525)"/>
<rect x="190" y="799" width="203" height="53" fill="#3D3D3D"/>
<path d="M190 584C159.072 584 134 558.928 134 528C134 497.072 159.072 472 190 472V584Z" fill="url(#paint9_linear_2026_1525)"/>
<path d="M134 584C103.072 584 78 558.928 78 528C78 497.072 103.072 472 134 472V584Z" fill="url(#paint10_linear_2026_1525)"/>
<path d="M78 584C47.0721 584 22 558.928 22 528C22 497.072 47.0721 472 78 472V584Z" fill="url(#paint11_linear_2026_1525)"/>
<rect x="177.628" y="190.849" width="81" height="163" transform="rotate(14.8897 177.628 190.849)" fill="url(#paint12_linear_2026_1525)"/>
<path d="M202.755 197.529L177.628 190.849L224.507 170.201L256.391 211.791L231.747 205.238L202.755 197.529Z" fill="url(#paint13_linear_2026_1525)"/>
<rect x="220.289" y="127.69" width="30" height="52" transform="rotate(14.8897 220.289 127.69)" fill="url(#paint14_linear_2026_1525)"/>
<rect x="167.349" y="229.505" width="55" height="65" transform="rotate(14.8897 167.349 229.505)" fill="url(#paint15_linear_2026_1525)"/>
<circle cx="218.41" cy="245.669" r="21.5" transform="rotate(14.8897 218.41 245.669)" fill="url(#paint16_linear_2026_1525)"/>
<rect x="278.022" y="192.58" width="56.4156" height="113.528" transform="rotate(-29.3814 278.022 192.58)" fill="url(#paint17_linear_2026_1525)"/>
<path d="M293.801 183.695L278.022 192.58L291.363 159.49L327.484 164.73L312.008 173.444L293.801 183.695Z" fill="url(#paint18_linear_2026_1525)"/>
<rect x="268.591" y="140.34" width="20.8947" height="36.2174" transform="rotate(-29.3814 268.591 140.34)" fill="url(#paint19_linear_2026_1525)"/>
<rect x="291.69" y="216.856" width="38.3069" height="45.2718" transform="rotate(-29.3814 291.69 216.856)" fill="url(#paint20_linear_2026_1525)"/>
<circle cx="325.014" cy="200.091" r="14.9745" transform="rotate(-29.3814 325.014 200.091)" fill="url(#paint21_linear_2026_1525)"/>
<line x1="41" y1="52" x2="351" y2="52" stroke="white" stroke-width="2"/>
<line x1="41" y1="285" x2="351" y2="285" stroke="white" stroke-width="2"/>
<line x1="41" y1="798" x2="351" y2="798" stroke="white" stroke-width="2"/>
<rect width="393" height="852" fill="black" fill-opacity="0.21"/>
<line x1="41" y1="52" x2="351" y2="52" stroke="white" stroke-width="2"/>
<line x1="41" y1="285" x2="351" y2="285" stroke="white" stroke-width="2"/>
<line x1="41" y1="798" x2="351" y2="798" stroke="white" stroke-width="2"/>
</g>
<defs>
<linearGradient id="paint0_linear_2026_1525" x1="64.9761" y1="100.046" x2="65.0683" y2="147.998" gradientUnits="userSpaceOnUse">
<stop stop-color="#B7E8FF"/>
<stop offset="1" stop-color="#FFF4BB"/>
</linearGradient>
<linearGradient id="paint1_linear_2026_1525" x1="122.976" y1="62.0461" x2="123.068" y2="109.998" gradientUnits="userSpaceOnUse">
<stop stop-color="#B7E8FF"/>
<stop offset="1" stop-color="#FFF4BB"/>
</linearGradient>
<linearGradient id="paint2_linear_2026_1525" x1="74.755" y1="66.4334" x2="83.6218" y2="83.9434" gradientUnits="userSpaceOnUse">
<stop stop-color="#B7E8FF"/>
<stop offset="1" stop-color="#FFF4BB"/>
</linearGradient>
<linearGradient id="paint3_linear_2026_1525" x1="95" y1="748" x2="95" y2="852" gradientUnits="userSpaceOnUse">
<stop stop-color="#FFC1D9"/>
<stop offset="1" stop-color="#FFC1D9" stop-opacity="0"/>
</linearGradient>
<linearGradient id="paint4_linear_2026_1525" x1="291.5" y1="454" x2="291.5" y2="748" gradientUnits="userSpaceOnUse">
<stop stop-color="#FFC1D9"/>
<stop offset="1" stop-color="#FFC1D9" stop-opacity="0"/>
</linearGradient>
<linearGradient id="paint5_linear_2026_1525" x1="95" y1="644" x2="95" y2="748" gradientUnits="userSpaceOnUse">
<stop stop-color="#FFF4BB"/>
<stop offset="1" stop-color="#B7E8FF" stop-opacity="0"/>
</linearGradient>
<linearGradient id="paint6_linear_2026_1525" x1="196.5" y1="0" x2="196.5" y2="422" gradientUnits="userSpaceOnUse">
<stop stop-color="#B7E8FF"/>
<stop offset="0.567708" stop-color="#B7E8FF"/>
<stop offset="1" stop-color="#FFC1D9"/>
</linearGradient>
<linearGradient id="paint7_linear_2026_1525" x1="291.5" y1="422" x2="291.5" y2="528" gradientUnits="userSpaceOnUse">
<stop stop-color="#B7E8FF"/>
<stop offset="1" stop-color="white"/>
</linearGradient>
<linearGradient id="paint8_linear_2026_1525" x1="291.5" y1="737" x2="291.5" y2="843" gradientUnits="userSpaceOnUse">
<stop stop-color="white"/>
<stop offset="1" stop-color="#B7E8FF"/>
</linearGradient>
<linearGradient id="paint9_linear_2026_1525" x1="190" y1="472" x2="190" y2="584" gradientUnits="userSpaceOnUse">
<stop stop-color="#FFC1D9"/>
<stop offset="0.447917" stop-color="#FFC1D9"/>
<stop offset="1" stop-color="#B7E8FF"/>
</linearGradient>
<linearGradient id="paint10_linear_2026_1525" x1="134" y1="472" x2="134" y2="584" gradientUnits="userSpaceOnUse">
<stop stop-color="#FFC1D9"/>
<stop offset="0.447917" stop-color="#FFC1D9"/>
<stop offset="1" stop-color="#B7E8FF"/>
</linearGradient>
<linearGradient id="paint11_linear_2026_1525" x1="78" y1="472" x2="78" y2="584" gradientUnits="userSpaceOnUse">
<stop stop-color="#FFC1D9"/>
<stop offset="0.447917" stop-color="#FFC1D9"/>
<stop offset="1" stop-color="#B7E8FF"/>
</linearGradient>
<linearGradient id="paint12_linear_2026_1525" x1="177.628" y1="234.349" x2="258.628" y2="234.349" gradientUnits="userSpaceOnUse">
<stop stop-color="#8DFFEA"/>
<stop offset="1" stop-color="#FFD4F0"/>
</linearGradient>
<linearGradient id="paint13_linear_2026_1525" x1="225.232" y1="170.394" x2="217.009" y2="201.32" gradientUnits="userSpaceOnUse">
<stop stop-color="#B7E8FF"/>
<stop offset="1" stop-color="#FFD4F0"/>
</linearGradient>
<linearGradient id="paint14_linear_2026_1525" x1="220.289" y1="150.69" x2="250.289" y2="150.69" gradientUnits="userSpaceOnUse">
<stop stop-color="#FFD4F0"/>
<stop offset="1" stop-color="#FFF4BB"/>
</linearGradient>
<linearGradient id="paint15_linear_2026_1525" x1="222.349" y1="260.005" x2="167.349" y2="259.005" gradientUnits="userSpaceOnUse">
<stop stop-color="#FFF4BB"/>
<stop offset="1" stop-color="#FFF4BB" stop-opacity="0"/>
</linearGradient>
<linearGradient id="paint16_linear_2026_1525" x1="196.91" y1="243.669" x2="239.91" y2="243.669" gradientUnits="userSpaceOnUse">
<stop stop-color="#FFD4F0"/>
<stop offset="1" stop-color="#FFD4F0" stop-opacity="0"/>
</linearGradient>
<linearGradient id="paint17_linear_2026_1525" x1="278.022" y1="222.877" x2="334.437" y2="222.877" gradientUnits="userSpaceOnUse">
<stop stop-color="#8DFFEA"/>
<stop offset="1" stop-color="#FFD4F0"/>
</linearGradient>
<linearGradient id="paint18_linear_2026_1525" x1="291.818" y1="159.234" x2="302.753" y2="178.655" gradientUnits="userSpaceOnUse">
<stop stop-color="#B7E8FF"/>
<stop offset="1" stop-color="#FFD4F0"/>
</linearGradient>
<linearGradient id="paint19_linear_2026_1525" x1="268.591" y1="156.359" x2="289.486" y2="156.359" gradientUnits="userSpaceOnUse">
<stop stop-color="#FFD4F0"/>
<stop offset="1" stop-color="#FFF4BB"/>
</linearGradient>
<linearGradient id="paint20_linear_2026_1525" x1="329.997" y1="238.099" x2="291.69" y2="237.402" gradientUnits="userSpaceOnUse">
<stop stop-color="#FFF4BB"/>
<stop offset="1" stop-color="#FFF4BB" stop-opacity="0"/>
</linearGradient>
<linearGradient id="paint21_linear_2026_1525" x1="310.039" y1="198.698" x2="339.988" y2="198.698" gradientUnits="userSpaceOnUse">
<stop stop-color="#FFD4F0"/>
<stop offset="1" stop-color="#FFD4F0" stop-opacity="0"/>
</linearGradient>
<clipPath id="clip0_2026_1525">
<rect width="393" height="852" rx="25" fill="white"/>
</clipPath>
</defs>
</svg>
